<svg width="40" height="50" viewBox="0 0 40 50" fill="none" xmlns="http://www.w3.org/2000/svg">
<path d="M20.203 0H20L0 2.1V38.3L20 50L40 38.3V2.1L20.203 0ZM37.4619 36.8L20 47L2.53807 36.8V22L20 32.2V34L8.0203 27V28.8L20 36V37.9L8 31V32.8L20 39.6L32.0812 32.5V24.9L37.4619 21.7V36.8ZM37.3604 19.8L32.5888 22.6L30.3553 23.9L20 17.7V19.5L28.8325 24.9H28.731L28.5279 25L27.2081 25.7L20 21.2V23L25.6853 26.6L24.264 27.5L20 24.8V26.6L22.8426 28.4L20 30L2.63959 20L20 10L37.3604 19.8ZM37.4619 18L20 8L2.53807 18V4.4L20 2.6L37.4619 4.4V18Z" fill="#666666"/>
</svg>
