<svg width="92" height="106" viewBox="0 0 92 106" fill="none" xmlns="http://www.w3.org/2000/svg">
<path d="M76.9862 79.9983C86.2113 71.5857 92 59.4688 92 46C92 20.5949 71.4051 0 46 0C20.5949 0 0 20.5949 0 46C0 71.4051 20.5949 92 46 92C46.6701 92 47.3369 91.9857 48 91.9573V106L77 80L76.9862 79.9983Z" fill="white"/>
<path d="M71.8253 35.0129C65.8613 20.655 49.4049 13.9179 35.0471 19.8819C20.6892 25.8459 13.8416 42.4127 19.9161 56.7706C23.8921 66.1584 32.3964 72.3433 41.7842 73.7791C41.1216 71.4598 40.4589 68.9195 39.9067 66.2688C41.5633 67.3733 43.3305 68.2569 45.0976 69.03C45.0976 69.03 45.208 71.3493 45.4289 74C47.4169 74 49.2945 73.8895 51.2825 73.4478C51.2825 73.2269 51.2825 73.006 51.2825 72.5642C51.6138 70.4658 52.4974 66.8211 52.6079 64.3913C53.8227 63.1764 54.9272 61.851 55.8108 60.3048C55.8108 60.4152 55.8108 60.6361 55.7003 60.7466C55.0376 65.3853 53.8227 70.4658 53.0496 71.7911C52.8287 72.2329 52.4974 72.7851 52.1661 73.006C53.7123 72.6747 55.1481 72.1224 56.6943 71.5702C71.0522 65.9375 77.8998 49.3707 71.8253 35.0129ZM70.2791 39.2098C69.8373 39.6516 68.8433 39.9829 68.6224 38.5471C68.5119 37.1113 68.4015 36.1173 68.4015 36.1173C68.4015 36.1173 66.303 32.3622 65.5299 32.2518C64.7568 32.2518 59.1241 36.1173 57.6883 37.6636C56.363 39.0994 56.1421 38.9889 56.1421 41.5291C56.1421 43.4067 56.363 50.4752 56.2525 55.9975C56.2525 55.9975 53.8228 56.6601 47.3065 58.4272C40.7902 60.1944 38.6918 60.4153 38.6918 60.4153L37.5873 54.0094L34.7157 39.5411C34.7157 39.5411 30.5188 37.9949 28.9726 37.5531C27.4264 37.1113 26.4324 36.78 24.5548 38.2158C22.5668 39.6516 22.6772 42.4127 22.6772 42.4127C22.6772 42.4127 23.119 43.5172 23.2295 43.9589C23.2295 44.5112 21.9041 44.4007 21.0206 44.4007C20.137 44.4007 20.0266 42.8545 20.6892 40.9769C21.3519 39.0994 22.7877 36.8905 22.7877 36.8905C22.7877 36.8905 24.113 34.3502 25.107 33.6875C25.107 33.6875 25.2175 33.3562 26.4324 33.4667C27.6473 33.5771 34.3844 33.9084 34.3844 33.9084L34.4949 31.3682C41.8947 30.3742 49.2945 29.822 56.8048 29.9324C56.8048 30.5951 56.8048 31.2578 56.6943 31.9204C56.6943 31.9204 61.5539 29.7115 65.6404 29.7115C65.6404 29.7115 66.0821 29.7115 66.5239 30.1533C66.8553 30.5951 69.1746 33.4667 69.3955 33.9084C69.6164 34.3502 70.7208 35.786 71.3835 37.2218C71.1626 37.2218 70.7208 38.768 70.2791 39.2098Z" fill="#FDC305"/>
<path d="M68.0701 32.4727C68.6224 33.1353 69.0641 33.6876 69.1746 33.9084C69.3955 34.3502 70.4999 35.786 71.1626 37.2218C71.1626 37.2218 70.7208 38.6576 70.1686 39.2098C69.7268 39.6516 68.7328 39.9829 68.5119 38.5471C68.4015 37.1114 68.291 36.1173 68.291 36.1173C68.291 36.1173 66.1926 32.3622 65.4194 32.2518C64.6463 32.2518 59.0136 36.1173 57.5778 37.6636C56.2525 39.0994 56.0316 38.9889 56.0316 41.5292C56.0316 43.1858 56.2525 48.8185 56.1421 53.899C58.1301 54.1199 61.0016 54.6721 61.8852 55.9975C61.8852 55.9975 61.5539 48.1559 70.4999 52.2423C70.4999 52.2423 70.8313 41.5292 83.0907 44.2903C83.2011 44.2903 76.9057 36.5591 68.0701 32.4727Z" fill="#F06351"/>
<path d="M56.4734 29.9324C56.5839 20.5446 54.9272 11.709 54.9272 11.709C54.9272 11.709 54.8167 10.2732 53.9332 11.4881C53.1601 12.703 52.6078 15.7954 52.6078 15.7954C44.4349 15.3537 38.4709 16.1268 38.4709 16.1268C37.5873 13.1448 36.0411 11.8194 35.268 12.1508C34.4948 12.4821 34.4948 15.7954 34.4948 15.7954L34.1635 31.3682C41.5633 30.3742 49.0736 29.9324 56.4734 29.9324Z" fill="#F06351"/>
<path d="M55.9212 60.5257C56.0316 59.3108 56.1421 57.7646 56.1421 56.1079C56.1421 56.1079 53.7123 56.7706 47.196 58.5377C40.6798 60.3048 38.5813 60.5257 38.5813 60.5257L39.7962 66.048C39.7962 66.1584 39.7962 66.2689 39.9066 66.3793C41.5633 67.4838 43.3304 68.3673 45.0976 69.1404C49.9571 66.7106 52.6078 64.6122 52.6078 64.6122C52.6078 64.6122 52.6078 64.6122 52.6078 64.7226C53.9332 63.3973 55.0376 61.9615 55.9212 60.5257Z" fill="#E55645"/>
<path d="M41.232 26.5086C41.232 26.3982 42.3364 27.2817 42.7782 27.5026C43.22 27.7235 43.4409 27.9444 43.4409 28.1653C43.4409 28.3862 43.1096 28.4966 42.7782 28.4966C42.4469 28.4966 41.7842 28.3862 41.6738 28.1653C41.6738 28.1653 42.3364 28.1653 42.6678 28.1653H42.9991C42.9991 28.2757 41.4529 27.0608 41.232 26.5086Z" fill="black"/>
<path d="M49.4049 26.6191C49.4049 26.6191 48.3004 28.0548 48.19 28.0548C48.0795 28.0548 47.9691 28.3862 48.4109 28.3862C48.8526 28.3862 49.6258 28.1653 49.7362 28.0548C49.8466 27.9444 49.8466 27.834 49.6258 27.834C49.4049 27.834 48.8526 27.834 48.5213 27.9444L49.4049 26.6191C49.5153 26.6191 49.5153 26.5086 49.4049 26.6191Z" fill="black"/>
<path d="M45.9811 33.3562C45.9811 33.3562 46.8647 32.9144 47.196 32.2518C47.5273 31.5891 47.196 31.2578 46.7542 31.1473C46.202 31.0369 45.3184 31.1473 44.8767 31.4786C44.4349 31.9204 44.5453 32.2518 44.7662 32.5831C44.9871 32.804 45.6498 33.2458 45.9811 33.3562Z" fill="black"/>
<path d="M45.5394 34.6816C45.5394 34.6816 45.3185 35.1233 44.9871 35.3442C44.7662 35.5651 44.3245 35.786 43.8827 35.786C43.22 35.786 42.6678 35.5651 42.226 35.3442C42.0051 35.2338 41.7842 35.0129 41.6738 34.9024C41.4529 34.6816 41.232 34.5711 41.232 34.5711C41.232 34.5711 42.0051 39.0994 44.1036 39.762C46.0916 40.4247 46.4229 38.9889 46.5334 38.5471C46.5334 38.2158 46.5334 36.2278 45.6498 35.0129C45.6498 34.6816 45.6498 34.9024 45.5394 34.6816Z" fill="#F06351"/>
<path d="M43.7722 36.0069C43.6618 36.0069 43.6618 36.0069 43.7722 36.0069C42.3364 36.0069 41.232 34.4607 41.232 34.4607C41.232 34.3502 41.232 34.2398 41.232 34.2398C41.3424 34.2398 41.4529 34.2398 41.4529 34.2398C41.4529 34.2398 42.5573 35.6756 43.7722 35.6756C44.4349 35.6756 44.9871 35.3442 45.5394 34.5711L45.6498 34.3502L45.7602 34.5711C45.7602 34.5711 46.202 35.4547 46.8647 35.4547C47.4169 35.4547 48.0796 35.0129 48.6318 34.0189C48.6318 33.9085 48.7423 33.9085 48.8527 34.0189C48.9632 34.0189 48.9632 34.1293 48.8527 34.2398C48.19 35.3442 47.4169 35.786 46.7543 35.786C46.0916 35.786 45.7602 35.2338 45.5394 34.9025C45.0976 35.6756 44.4349 36.0069 43.7722 36.0069Z" fill="black"/>
<path d="M51.3929 43.2963L47.9691 44.7321L49.184 38.5471L40.9006 49.2603L44.3244 47.8245L43.1095 54.0095L51.3929 43.2963ZM43.22 47.4932L47.7482 41.5292L46.8647 45.947L49.0736 45.0634L44.5453 51.0274L45.4289 46.6096L43.22 47.4932Z" fill="#111111"/>
<path d="M56.4734 31.9204C56.4734 31.9204 53.7123 34.3502 50.8407 37.6636C48.0796 40.8665 44.9871 43.0754 44.9871 43.0754C44.7663 42.5232 43.22 41.4187 43.22 41.4187C43.22 41.4187 39.7962 39.0994 37.4769 37.2218C36.1515 36.1173 34.9366 34.792 34.0531 33.9084C33.7217 33.9084 32.8382 33.798 31.8442 33.798C37.0351 41.5291 45.0976 43.5172 45.0976 43.5172C46.0916 43.4067 48.7423 41.4187 50.7303 39.8725C52.7183 38.3262 56.0317 34.9024 57.2465 33.3562C57.9092 32.5831 58.2406 31.81 58.4614 31.1473C57.2465 31.5891 56.4734 31.9204 56.4734 31.9204Z" fill="#F06351"/>
<path d="M34.4948 39.4307C34.4948 39.4307 30.2979 37.8844 28.7517 37.4427C27.2055 37.0009 26.2114 36.6696 24.3339 38.1053C22.3459 39.5411 22.4563 42.3023 22.4563 42.3023C22.4563 42.3023 22.8981 43.4067 23.0085 43.8485C23.0085 44.4007 21.6832 44.2903 20.7996 44.2903C19.9161 44.2903 19.8056 42.744 20.4683 40.8665C21.131 38.9889 22.5668 36.78 22.5668 36.78C16.6027 39.8725 6 47.1618 6 47.1618C6 47.1618 9.20291 46.8305 15.0565 47.3827C20.7996 47.935 20.4683 52.5736 20.4683 52.5736C20.4683 52.5736 24.3339 51.4692 26.6532 51.3587C28.9726 51.2483 29.1935 53.6781 29.1935 53.6781L29.7457 57.875C29.7457 57.875 30.2979 57.2123 32.6173 55.2243C34.7157 53.5676 36.9246 53.6781 37.4768 53.7885L34.4948 39.4307Z" fill="#F06351"/>
</svg>
