<svg width="24" height="19" viewBox="0 0 24 19" fill="none" xmlns="http://www.w3.org/2000/svg">
<path d="M18.6084 16C18.3083 16 17.708 15.9 17.1077 15.5C16.6075 15.2 16.2073 14.8 15.8071 14.3C15.507 14 14.9067 13.4 14.7066 13.4C14.5065 13.5 14.3064 14.1 14.4064 14.6C14.4064 14.7 14.4064 15.2 14.1063 15.5C13.8061 15.8 13.3059 15.9 13.2059 15.9H11.8052C11.1048 15.9 8.60365 15.7 6.40259 13.6C3.5012 11.1 1.2001 6.2 1.10005 6C0.999999 5.6 0.899951 5.2 1.2001 4.9C1.50024 4.6 2.00048 4.5 2.20058 4.5H5.30206C5.40211 4.5 5.70226 4.6 6.0024 4.8C6.30254 5 6.40259 5.3 6.50264 5.4C7.20298 6.9 8.00336 8.2 9.10389 9.4C9.20394 9 9.30398 8 9.20394 7.1C9.20394 6.7 9.10389 6.3 9.00384 6.1C8.90379 6 8.7037 5.9 8.5036 5.9L7.90331 5.4C7.90331 4.9 8.40355 4.5 8.80374 4.3C9.30398 4.1 10.1044 4 11.1048 4H11.6051C12.5055 4 12.8057 4.1 13.2059 4.1C14.4064 4.4 14.4064 5.4 14.3064 6.6V8.2C14.3064 8.5 14.3064 9 14.4064 9.2C14.6065 9.1 15.0067 8.7 15.9072 7.3C16.5074 6.4 16.9076 5.4 17.0077 5.2C17.1077 4.9 17.4079 4.5 18.2083 4.5H21.6099C22.3102 4.5 22.8105 4.7 22.9105 5.2C23.1106 5.7 23.0106 6.5 21.2097 8.7C20.9096 9 20.7095 9.3 20.5094 9.6C20.0091 10 19.6089 10.6 19.6089 10.7C19.6089 10.8 20.1092 11.2 20.5094 11.6C21.6099 12.5 22.4103 13.3 22.7104 13.9C23.1106 14.5 23.0106 14.9 22.9105 15.2C22.6104 15.9 21.7099 15.9 21.5098 16H18.7085H18.6084ZM14.7066 12.3C15.4069 12.3 15.9072 12.9 16.5074 13.5C16.9076 13.9 17.2078 14.3 17.608 14.5C18.1082 14.8 18.6084 14.8 18.6084 14.8H21.5098C21.6099 14.8 21.81 14.7 21.91 14.7C21.91 14.7 21.91 14.6 21.81 14.6C21.5098 14.1 20.8095 13.3 19.809 12.5C18.9086 11.8 18.5084 11.4 18.4084 10.8C18.4084 10.2 18.8085 9.7 19.6089 8.7C19.809 8.5 20.0091 8.2 20.3093 7.9C21.4098 6.5 21.7099 5.9 21.81 5.6H17.9081C17.9081 6 17.4079 7.1 16.8076 8C15.4069 10.1 14.8066 10.4 14.3064 10.4C14.2063 10.4 14.0062 10.4 13.9062 10.3C13.2059 9.9 13.2059 8.9 13.2059 8.2V7.9V6.6C13.3059 5.3 13.2059 5.3 12.9057 5.2C12.6056 5.1 12.4055 5.1 11.505 5.1H11.0048C10.5046 5.1 10.0043 5.1 9.60413 5.2L9.80422 5.4C10.2044 5.9 10.2044 6.9 10.2044 7.1C10.3045 8.4 10.2044 10 9.50408 10.4C9.40403 10.4 9.30398 10.5 9.10389 10.5C8.5036 10.5 7.80326 9.8 6.60269 8C6.0024 6.9 5.50216 5.8 5.50216 5.8C5.50216 5.8 5.50216 5.7 5.40211 5.7C5.30206 5.7 5.20202 5.6 5.20202 5.6H2.30062H2.20058C2.60077 6.5 4.70178 10.6 7.00288 12.8C9.00384 14.7 11.3049 14.8 11.7051 14.8H13.1058C13.1058 14.8 13.3059 14.8 13.3059 14.7V14.6C13.3059 14.4 13.3059 12.6 14.5065 12.3H14.7066Z" fill="#666666"/>
</svg>
