<svg width="24" height="24" viewBox="0 0 24 24" fill="none" xmlns="http://www.w3.org/2000/svg">
<path d="M18.6084 18C18.3083 18 17.708 17.9 17.1077 17.5C16.6075 17.2 16.2073 16.8 15.8071 16.3C15.507 16 14.9067 15.4 14.7066 15.4C14.5065 15.5 14.3064 16.1 14.4064 16.6C14.4064 16.7 14.4064 17.2 14.1063 17.5C13.8061 17.8 13.3059 17.9 13.2059 17.9H11.8052C11.1048 17.9 8.60365 17.7 6.40259 15.6C3.5012 13.1 1.2001 8.2 1.10005 8C1 7.6 0.899952 7.2 1.2001 6.9C1.50024 6.6 2.00048 6.5 2.20058 6.5H5.30206C5.40211 6.5 5.70226 6.6 6.0024 6.8C6.30254 7 6.40259 7.3 6.50264 7.4C7.20298 8.9 8.00336 10.2 9.10389 11.4C9.20394 11 9.30398 10 9.20394 9.1C9.20394 8.7 9.10389 8.3 9.00384 8.1C8.90379 8 8.7037 7.9 8.5036 7.9L7.90331 7.4C7.90331 6.9 8.40355 6.5 8.80374 6.3C9.30398 6.1 10.1044 6 11.1048 6H11.6051C12.5055 6 12.8057 6.1 13.2059 6.1C14.4064 6.4 14.4064 7.4 14.3064 8.6V10.2C14.3064 10.5 14.3064 11 14.4064 11.2C14.6065 11.1 15.0067 10.7 15.9072 9.3C16.5074 8.4 16.9076 7.4 17.0077 7.2C17.1077 6.9 17.4079 6.5 18.2083 6.5H21.6099C22.3102 6.5 22.8105 6.7 22.9105 7.2C23.1106 7.7 23.0106 8.5 21.2097 10.7C20.9096 11 20.7095 11.3 20.5094 11.6C20.0091 12 19.6089 12.6 19.6089 12.7C19.6089 12.8 20.1092 13.2 20.5094 13.6C21.6099 14.5 22.4103 15.3 22.7104 15.9C23.1106 16.5 23.0106 16.9 22.9105 17.2C22.6104 17.9 21.7099 17.9 21.5098 18H18.7085C18.7085 18 18.6084 18 18.6084 18ZM14.7066 14.3C15.4069 14.3 15.9072 14.9 16.5074 15.5C16.9076 15.9 17.2078 16.3 17.608 16.5C18.1082 16.8 18.6084 16.8 18.6084 16.8H21.5098C21.6099 16.8 21.81 16.7 21.91 16.7C21.91 16.7 21.91 16.6 21.81 16.6C21.5098 16.1 20.8095 15.3 19.809 14.5C18.9086 13.8 18.5084 13.4 18.4084 12.8C18.4084 12.2 18.8085 11.7 19.6089 10.7C19.809 10.5 20.0091 10.2 20.3093 9.9C21.4098 8.5 21.7099 7.9 21.81 7.6H17.9081C17.9081 8 17.4079 9.1 16.8076 10C15.4069 12.1 14.8066 12.4 14.3064 12.4C14.2063 12.4 14.0062 12.4 13.9062 12.3C13.2059 11.9 13.2059 10.9 13.2059 10.2V9.9V8.6C13.3059 7.3 13.2059 7.3 12.9057 7.2C12.6056 7.1 12.4055 7.1 11.505 7.1H11.0048C10.5046 7.1 10.0043 7.1 9.60413 7.2L9.80422 7.4C10.2044 7.9 10.2044 8.9 10.2044 9.1C10.3045 10.4 10.2044 12 9.50408 12.4C9.40403 12.4 9.30398 12.5 9.10389 12.5C8.5036 12.5 7.80326 11.8 6.60269 10C6.0024 8.9 5.50216 7.8 5.50216 7.8C5.50216 7.8 5.50216 7.7 5.40211 7.7C5.30206 7.7 5.20202 7.6 5.20202 7.6H2.30062H2.20058C2.60077 8.5 4.70178 12.6 7.00288 14.8C9.00384 16.7 11.3049 16.8 11.7051 16.8H13.1058C13.1058 16.8 13.3059 16.8 13.3059 16.7V16.6C13.3059 16.4 13.3059 14.6 14.5065 14.3C14.5065 14.3 14.7066 14.3 14.7066 14.3Z" fill="black"/>
</svg>
