<svg width="18" height="19" viewBox="0 0 18 19" fill="none" xmlns="http://www.w3.org/2000/svg">
<path d="M13.5 6.5C14.0523 6.5 14.5 6.05228 14.5 5.5C14.5 4.94772 14.0523 4.5 13.5 4.5C12.9477 4.5 12.5 4.94772 12.5 5.5C12.5 6.05228 12.9477 6.5 13.5 6.5Z" fill="#666666"/>
<path fill-rule="evenodd" clip-rule="evenodd" d="M9 14C11.2091 14 13 12.2091 13 10C13 7.79086 11.2091 6 9 6C6.79086 6 5 7.79086 5 10C5 12.2091 6.79086 14 9 14ZM9 13C10.6569 13 12 11.6569 12 10C12 8.3431 10.6569 7 9 7C7.3431 7 6 8.3431 6 10C6 11.6569 7.3431 13 9 13Z" fill="#666666"/>
<path fill-rule="evenodd" clip-rule="evenodd" d="M1 6C1 3.79086 2.79086 2 5 2H13C15.2091 2 17 3.79086 17 6V14C17 16.2091 15.2091 18 13 18H5C2.79086 18 1 16.2091 1 14V6ZM5 3H13C14.6569 3 16 4.34315 16 6V14C16 15.6569 14.6569 17 13 17H5C3.34315 17 2 15.6569 2 14V6C2 4.34315 3.34315 3 5 3Z" fill="#666666"/>
</svg>
