<svg width="20" height="20" viewBox="0 0 20 20" fill="none" xmlns="http://www.w3.org/2000/svg">
<path fill-rule="evenodd" clip-rule="evenodd" d="M8.1054 13.2054V19.4054C8.1054 19.7054 7.8054 20.0054 7.5054 19.9054H3.1054H2.9054C1.2054 19.9054 -0.0945964 18.5054 0.00540359 16.8054V3.1054V2.9054C0.105404 1.2054 1.5054 -0.0945964 3.1054 0.00540359H7.5054C7.8054 0.00540359 8.1054 0.305404 8.2054 0.605404V6.9054C8.2054 7.2054 7.9054 7.5054 7.6054 7.5054H3.2054C3.2054 6.9054 3.7054 6.3054 4.4054 6.3054H6.8054V1.3054H3.1054H2.9054C2.0054 1.3054 1.2054 2.1054 1.2054 3.1054V16.9054V17.1054C1.3054 18.1054 2.1054 18.9054 3.1054 18.8054H6.8054V13.8054H4.3054C3.7054 13.8054 3.1054 13.3054 3.1054 12.6054H4.4054H7.5054C7.8054 12.6054 8.1054 12.9054 8.1054 13.2054ZM9.40527 9.40543H17.9053L15.8053 7.40543L16.7053 6.50543L19.8053 9.60543C20.0053 9.90543 20.0053 10.3054 19.8053 10.5054L16.7053 13.6054L15.8053 12.7054L17.9053 10.6054H9.40527V9.40543Z" fill="#222222"/>
</svg>
