<svg width="56" height="60" viewBox="0 0 56 60" fill="none" xmlns="http://www.w3.org/2000/svg">
<path d="M52.8616 12.1705H45.7864C46.2918 11.4686 46.595 10.7667 46.8983 9.96449C47.5047 7.95906 47.3025 5.85335 46.2918 4.04846C45.2811 2.24358 43.6639 0.940046 41.6424 0.338417C39.6209 -0.263213 37.4984 -0.0626697 35.6791 0.940046C32.0404 2.94548 29.4125 7.05661 27.9975 9.96449C26.5824 7.05661 23.9545 2.84521 20.3158 0.940046C16.475 -1.06539 11.7246 0.338416 9.70309 4.04846C8.28805 6.7558 8.4902 9.86422 10.2085 12.1705H3.13329C1.41503 12.1705 0 13.5743 0 15.2789V24.7044C0 26.409 1.41503 27.8128 3.13329 27.8128H4.04295V53.9837C4.04295 57.2927 6.77195 60 10.1074 60H45.9886C49.324 60 52.053 57.2927 52.053 53.9837V27.8128H52.8616C54.5799 27.8128 55.9949 26.409 55.9949 24.7044V15.2789C56.096 13.5743 54.6809 12.1705 52.8616 12.1705ZM36.8919 2.94548C38.2059 2.24358 39.6209 2.1433 41.036 2.54439C42.3499 2.94548 43.4617 3.84792 44.1693 5.15145C44.8768 6.45498 44.9779 7.85878 44.5736 9.26259C44.1693 10.4658 43.4617 11.4686 42.3499 12.1705H29.7157C30.8275 9.5634 33.3544 4.95091 36.8919 2.94548ZM11.8256 5.15145C13.3417 2.54439 16.5761 1.54168 19.204 2.94548C22.7416 4.85064 25.2685 9.5634 26.3803 12.0702H13.645C11.3203 10.6664 10.5117 7.55797 11.8256 5.15145ZM26.7846 27.8128V41.55H6.46872V27.8128H26.7846ZM6.46872 53.9837V43.9566H26.8856V57.6938H10.1074C8.08591 57.6938 6.46872 55.9891 6.46872 53.9837ZM45.9886 57.6938H29.2103V43.9566H49.6272V53.9837C49.6272 55.9891 48.0101 57.6938 45.9886 57.6938ZM49.6272 41.55H29.2103V27.8128H49.6272V41.55V41.55ZM53.6702 24.7044C53.6702 25.1055 53.367 25.4063 52.9627 25.4063H50.9412H27.9975H5.25584H3.23436C2.83007 25.4063 2.52685 25.1055 2.52685 24.7044V15.2789C2.52685 14.8778 2.83007 14.577 3.23436 14.577H52.9627C53.367 14.577 53.6702 14.8778 53.6702 15.2789V24.7044V24.7044Z" fill="black"/>
</svg>
