<svg width="114" height="39" viewBox="0 0 114 39" fill="none" xmlns="http://www.w3.org/2000/svg">
<path d="M8.2 27.798C7.4 26.798 7 25.298 7 23.398V17.098C7 15.198 7.4 13.698 8.2 12.698C9 11.698 10.4 11.198 12.4 11.198C14.3 11.198 15.6 11.598 16.4 12.498C17.2 13.398 17.6 14.598 17.6 16.298V17.798H13.6V15.998C13.6 15.298 13.5 14.798 13.4 14.398C13.3 14.098 12.9 13.898 12.4 13.898C11.9 13.898 11.4 14.098 11.3 14.498C11.1 14.898 11 15.398 11 16.098V24.398C11 25.098 11.1 25.598 11.3 25.998C11.5 26.398 11.8 26.598 12.4 26.598C12.9 26.598 13.3 26.398 13.4 25.998C13.6 25.598 13.6 25.098 13.6 24.398V22.598H17.5V24.098C17.5 25.698 17.1 26.998 16.3 27.998C15.5 28.898 14.2 29.398 12.3 29.398C10.4 29.298 9 28.798 8.2 27.798Z" fill="#111111"/>
<path d="M22.2 11.398H26.7L30 28.998H26.4L25.8 25.298H23.2L22.6 28.998H18.9L22.2 11.398ZM25.4 22.998L24.5 16.098L23.6 22.998H25.4Z" fill="#111111"/>
<path d="M32.8 14.298H30.1V11.398H39.4V14.298H36.7V28.998H32.7V14.298H32.8Z" fill="#111111"/>
<path d="M46.5 11.398H53.4V13.198H49V18.998H52.6V20.698H49V27.098H53.5V28.898H46.5V11.398Z" fill="#111111"/>
<path d="M55.5 11.398H57.2L62.3 23.098V11.398H64.4V28.998H62.8L57.7 16.998V28.998H55.6V11.398H55.5Z" fill="#111111"/>
<path d="M66.8 11.398H73.7V13.198H69.3V18.998H72.9V20.698H69.3V27.098H73.8V28.898H66.8V11.398V11.398Z" fill="#111111"/>
<path d="M75.8 11.398H79.4C81.2 11.398 82.5 11.798 83.4 12.498C84.3 13.198 84.7 14.398 84.7 16.098C84.7 18.398 84 19.698 82.5 20.198L85 28.998H82.6L80.3 20.698H78.4V28.998H75.9V11.398H75.8ZM79.2 18.998C80.3 18.998 81 18.798 81.5 18.398C82 17.998 82.2 17.198 82.2 16.098C82.2 15.398 82.1 14.798 82 14.398C81.9 13.998 81.6 13.698 81.1 13.498C80.7 13.298 80.1 13.198 79.4 13.198H78.3V18.998H79.2V18.998Z" fill="#111111"/>
<path d="M87.8 27.698C87.1 26.698 86.7 25.198 86.7 23.198V17.398C86.7 15.998 86.8 14.898 87.1 13.998C87.4 13.098 87.9 12.498 88.6 11.998C89.3 11.498 90.3 11.298 91.5 11.298C93.1 11.298 94.3 11.698 95.1 12.498C95.8 13.298 96.2 14.598 96.2 16.398V17.098H93.9V16.498C93.9 15.698 93.8 14.998 93.7 14.598C93.6 14.098 93.4 13.798 93 13.598C92.7 13.298 92.2 13.198 91.6 13.198C90.9 13.198 90.4 13.398 90.1 13.698C89.8 13.998 89.5 14.398 89.4 14.898C89.3 15.398 89.3 16.098 89.3 16.998V23.498C89.3 24.798 89.5 25.798 89.8 26.398C90.1 26.998 90.8 27.298 91.7 27.298C92.6 27.298 93.3 26.998 93.6 26.298C93.9 25.698 94.1 24.598 94.1 23.198V21.998H91.8V20.298H96.3V28.998H94.7L94.5 26.998C93.9 28.498 92.9 29.198 91.3 29.198C89.7 29.198 88.5 28.698 87.8 27.698Z" fill="#111111"/>
<path d="M101.3 22.798L97.4 11.398H99.7L102.4 19.898L105.1 11.398H107.4L103.6 22.798V28.998H101.2V22.798H101.3Z" fill="#111111"/>
</svg>
