<svg width="39" height="39" viewBox="0 0 39 39" fill="none" xmlns="http://www.w3.org/2000/svg">
<path d="M9.10001 21.6979L9.20001 19.3979C15.9 18.4979 22.6 17.9979 29.4 18.0979C29.4 18.6979 29.4 19.2979 29.3 19.8979C29.3 19.8979 32.2 18.5979 35.3 18.0979C32.9 11.7979 26.8 7.29793 19.7 7.29793C11.4 7.29793 4.50001 13.3979 3.20001 21.3979C5.40001 21.4979 9.10001 21.6979 9.10001 21.6979Z" fill="#FDC305"/>
<path d="M30.2 25.1979C29 26.4979 28.8 26.3979 28.8 28.6979C28.8 29.5979 28.8 33.5979 28.8 37.8979C33.3 34.8979 36.2 29.7979 36.2 23.9979C36.2 22.8979 36.1 21.8979 35.9 20.8979C34.2 21.9979 31.2 24.0979 30.2 25.1979Z" fill="#FDC305"/>
<path d="M9.4 26.6979C9.4 26.6979 5.6 25.2979 4.2 24.8979C3.8 24.7979 3.4 24.6979 3 24.5979C3.2 30.5979 6.7 35.8979 11.7 38.5979L9.4 26.6979Z" fill="#FDC305"/>
<path d="M29.3 18.0979C29.4 9.59793 27.9 1.59792 27.9 1.59792C27.9 1.59792 27.7 0.397924 27 1.39792C26.3 2.49792 25.8 5.29792 25.8 5.29792C18.4 4.89792 13 5.59792 13 5.59792C12.2 2.99792 10.9 1.79792 10.2 1.99792C9.50001 2.29792 9.50001 5.39792 9.50001 5.39792L9.10001 19.4979C15.8 18.4979 22.6 18.0979 29.3 18.0979Z" fill="#F06351"/>
<path d="M15.4 14.9979C15.4 14.8979 16.4 15.6979 16.8 15.8979C17.2 16.0979 17.4 16.2979 17.4 16.4979C17.4 16.6979 17.1 16.7979 16.8 16.7979C16.5 16.7979 15.9 16.6979 15.8 16.4979C15.8 16.4979 16.4 16.4979 16.7 16.4979H17C17.1 16.5979 15.7 15.4979 15.4 14.9979Z" fill="black"/>
<path d="M22.9 15.0979C22.9 15.0979 21.9 16.3979 21.8 16.3979C21.8 16.4979 21.6 16.6979 22 16.6979C22.4 16.6979 23.1 16.4979 23.2 16.3979C23.3 16.2979 23.3 16.1979 23.1 16.1979C22.9 16.1979 22.4 16.1979 22.1 16.2979L22.9 15.0979C23 14.9979 22.9 15.0979 22.9 15.0979Z" fill="black"/>
<path d="M19.8 21.1979C19.8 21.1979 20.6 20.7979 20.9 20.1979C21.2 19.4979 20.9 19.2979 20.5 19.1979C20 19.0979 19.2 19.1979 18.8 19.4979C18.4 19.8979 18.5 20.1979 18.7 20.4979C18.9 20.6979 19.5 21.0979 19.8 21.1979Z" fill="black"/>
<path d="M19.3 22.4979C19.3 22.4979 19.1 22.8979 18.8 23.0979C18.6 23.2979 18.2 23.4979 17.8 23.4979C17.2 23.4979 16.7 23.2979 16.3 23.0979C16.1 22.9979 15.9 22.7979 15.8 22.6979C15.6 22.4979 15.4 22.3979 15.4 22.3979C15.4 22.3979 16.1 26.4979 18 27.0979C19.8 27.6979 20.1 26.3979 20.2 25.9979C20.2 25.6979 20.2 23.8979 19.4 22.7979C19.5 22.3979 19.4 22.5979 19.3 22.4979Z" fill="#F06351"/>
<path d="M17.7 23.5979C16.4 23.5979 15.4 22.1979 15.4 22.1979C15.4 22.0979 15.4 21.9979 15.4 21.9979C15.5 21.9979 15.6 21.9979 15.6 21.9979C15.6 21.9979 16.6 23.2979 17.7 23.2979C18.3 23.2979 18.8 22.9979 19.3 22.2979L19.4 22.0979L19.5 22.2979C19.5 22.2979 19.9 23.0979 20.5 23.0979C21 23.0979 21.6 22.6979 22.1 21.7979C22.1 21.6979 22.2 21.6979 22.3 21.7979C22.4 21.7979 22.4 21.8979 22.3 21.9979C21.7 22.9979 21 23.3979 20.4 23.3979C19.8 23.3979 19.5 22.8979 19.3 22.5979C18.9 23.2979 18.3 23.5979 17.7 23.5979Z" fill="black"/>
<path d="M29.2 19.8979C29.2 19.8979 26.7 22.0979 24.1 25.0979C21.5 28.0979 18.9 29.9979 18.9 29.9979C18.7 29.4979 17.3 28.4979 17.3 28.4979C17.3 28.4979 14.2 26.3979 12.1 24.6979C10.9 23.6979 9.8 22.4979 9 21.6979C8.7 21.6979 7.9 21.5979 7 21.5979C11.7 28.5979 19 30.3979 19 30.3979C19.9 30.2979 22.3 28.4979 24.1 27.0979C25.9 25.6979 28.9 22.5979 30 21.1979C30.6 20.4979 30.9 19.7979 31.1 19.1979C30 19.5979 29.2 19.8979 29.2 19.8979Z" fill="#F06351"/>
</svg>
