<svg width="130" height="26" viewBox="0 0 130 26" fill="none" xmlns="http://www.w3.org/2000/svg">
<path d="M2.6 22.5C1.6 21.2 1 19.3 1 16.9V8.6C1 6.1 1.5 4.2 2.5 2.9C3.6 1.6 5.3 1 7.8 1C10.2 1 11.9 1.6 12.9 2.7C13.9 3.8 14.4 5.5 14.4 7.6V9.6H9.5V7.3C9.5 6.4 9.4 5.7 9.2 5.3C9 4.9 8.6 4.5 7.8 4.5C7.1 4.5 6.6 4.7 6.4 5.2C6.2 5.7 6.1 6.5 6.1 7.4V18.1C6.1 19 6.2 19.7 6.5 20.2C6.7 20.7 7.2 20.9 7.9 20.9C8.6 20.9 9 20.7 9.2 20.2C9.4 19.7 9.5 19 9.5 18.1V15.7H14.4V17.7C14.4 19.8 13.9 21.5 12.9 22.7C11.9 23.9 10.2 24.5 7.8 24.5C5.4 24.4 3.6 23.8 2.6 22.5Z" fill="#111111"/>
<path d="M20.3 1.3H26L30.2 24.1H25.6L24.8 19.3H21.5L20.7 24.1H16L20.3 1.3ZM24.4 16.3L23.2 7.4L22 16.3H24.4Z" fill="#111111"/>
<path d="M33.7 5.1H30.3V1.3H42.2V5H38.8V24.1H33.7V5.1Z" fill="#111111"/>
<path d="M60.1 1.3V3.7H54.4V11.2H59V13.5H54.4V21.9H60.1V24.2H51.2V1.3H60.1Z" fill="#111111"/>
<path d="M62.7 1.3H64.9L71.4 16.4V1.3H74V24.1H72L65.4 8.5V24.1H62.7V1.3Z" fill="#111111"/>
<path d="M77 1.3H85.8V3.7H80.1V11.2H84.7V13.5H80.1V21.9H85.8V24.2H77V1.3Z" fill="#111111"/>
<path d="M93 1.3C95.3 1.3 97 1.8 98.1 2.7C99.2 3.6 99.7 5.2 99.7 7.3C99.7 10.2 98.8 12 96.9 12.6L100.1 24H97L94 13.3H91.5V24H88.3V1.3H93ZM92.8 11.1C94.2 11.1 95.1 10.8 95.7 10.3C96.3 9.8 96.6 8.8 96.6 7.3C96.6 6.4 96.5 5.6 96.3 5.1C96.1 4.6 95.7 4.2 95.2 3.9C94.7 3.6 93.9 3.5 93 3.5H91.6V11H92.8V11.1Z" fill="#111111"/>
<path d="M103.7 22.4C102.8 21.1 102.3 19.2 102.3 16.6V9C102.3 7.2 102.5 5.8 102.8 4.7C103.2 3.6 103.8 2.7 104.7 2.1C105.6 1.5 106.8 1.2 108.4 1.2C110.5 1.2 112 1.7 112.9 2.8C113.8 3.9 114.3 5.5 114.3 7.8V8.6H111.3V7.9C111.3 6.8 111.2 6 111.1 5.4C111 4.8 110.7 4.4 110.3 4.1C109.9 3.8 109.3 3.6 108.4 3.6C107.5 3.6 106.9 3.8 106.4 4.2C105.9 4.6 105.7 5.1 105.6 5.8C105.5 6.5 105.4 7.4 105.4 8.5V17C105.4 18.7 105.6 20 106 20.8C106.4 21.6 107.2 21.9 108.4 21.9C109.6 21.9 110.4 21.5 110.8 20.7C111.2 19.9 111.5 18.6 111.5 16.7V15.1H108.6V12.8H114.4V24.1H112.4L112.1 21.5C111.4 23.4 110 24.4 108 24.4C106.1 24.4 104.6 23.7 103.7 22.4Z" fill="#111111"/>
<path d="M120.8 16.1L115.9 1.4H118.9L122.4 12.4L125.8 1.4H128.8L123.9 16.1V24.1H120.9V16.1H120.8Z" fill="#111111"/>
</svg>
