<svg xmlns="http://www.w3.org/2000/svg">
  <symbol id="icon__vk" viewBox="0 0 24 19">
    <path d="M18.6084 16C18.3083 16 17.708 15.9 17.1077 15.5C16.6075 15.2 16.2073 14.8 15.8071 14.3C15.507 14 14.9067 13.4 14.7066 13.4C14.5065 13.5 14.3064 14.1 14.4064 14.6C14.4064 14.7 14.4064 15.2 14.1063 15.5C13.8061 15.8 13.3059 15.9 13.2059 15.9H11.8052C11.1048 15.9 8.60365 15.7 6.40259 13.6C3.5012 11.1 1.2001 6.2 1.10005 6C0.999999 5.6 0.899951 5.2 1.2001 4.9C1.50024 4.6 2.00048 4.5 2.20058 4.5H5.30206C5.40211 4.5 5.70226 4.6 6.0024 4.8C6.30254 5 6.40259 5.3 6.50264 5.4C7.20298 6.9 8.00336 8.2 9.10389 9.4C9.20394 9 9.30398 8 9.20394 7.1C9.20394 6.7 9.10389 6.3 9.00384 6.1C8.90379 6 8.7037 5.9 8.5036 5.9L7.90331 5.4C7.90331 4.9 8.40355 4.5 8.80374 4.3C9.30398 4.1 10.1044 4 11.1048 4H11.6051C12.5055 4 12.8057 4.1 13.2059 4.1C14.4064 4.4 14.4064 5.4 14.3064 6.6V8.2C14.3064 8.5 14.3064 9 14.4064 9.2C14.6065 9.1 15.0067 8.7 15.9072 7.3C16.5074 6.4 16.9076 5.4 17.0077 5.2C17.1077 4.9 17.4079 4.5 18.2083 4.5H21.6099C22.3102 4.5 22.8105 4.7 22.9105 5.2C23.1106 5.7 23.0106 6.5 21.2097 8.7C20.9096 9 20.7095 9.3 20.5094 9.6C20.0091 10 19.6089 10.6 19.6089 10.7C19.6089 10.8 20.1092 11.2 20.5094 11.6C21.6099 12.5 22.4103 13.3 22.7104 13.9C23.1106 14.5 23.0106 14.9 22.9105 15.2C22.6104 15.9 21.7099 15.9 21.5098 16H18.7085H18.6084ZM14.7066 12.3C15.4069 12.3 15.9072 12.9 16.5074 13.5C16.9076 13.9 17.2078 14.3 17.608 14.5C18.1082 14.8 18.6084 14.8 18.6084 14.8H21.5098C21.6099 14.8 21.81 14.7 21.91 14.7C21.91 14.7 21.91 14.6 21.81 14.6C21.5098 14.1 20.8095 13.3 19.809 12.5C18.9086 11.8 18.5084 11.4 18.4084 10.8C18.4084 10.2 18.8085 9.7 19.6089 8.7C19.809 8.5 20.0091 8.2 20.3093 7.9C21.4098 6.5 21.7099 5.9 21.81 5.6H17.9081C17.9081 6 17.4079 7.1 16.8076 8C15.4069 10.1 14.8066 10.4 14.3064 10.4C14.2063 10.4 14.0062 10.4 13.9062 10.3C13.2059 9.9 13.2059 8.9 13.2059 8.2V7.9V6.6C13.3059 5.3 13.2059 5.3 12.9057 5.2C12.6056 5.1 12.4055 5.1 11.505 5.1H11.0048C10.5046 5.1 10.0043 5.1 9.60413 5.2L9.80422 5.4C10.2044 5.9 10.2044 6.9 10.2044 7.1C10.3045 8.4 10.2044 10 9.50408 10.4C9.40403 10.4 9.30398 10.5 9.10389 10.5C8.5036 10.5 7.80326 9.8 6.60269 8C6.0024 6.9 5.50216 5.8 5.50216 5.8C5.50216 5.8 5.50216 5.7 5.40211 5.7C5.30206 5.7 5.20202 5.6 5.20202 5.6H2.30062H2.20058C2.60077 6.5 4.70178 10.6 7.00288 12.8C9.00384 14.7 11.3049 14.8 11.7051 14.8H13.1058C13.1058 14.8 13.3059 14.8 13.3059 14.7V14.6C13.3059 14.4 13.3059 12.6 14.5065 12.3H14.7066Z" fill="currentColor" />
  </symbol>

  <symbol id="icon__insta" viewBox="0 0 18 19">
    <g fill="currentColor">
      <path d="M13.5 6.5C14.0523 6.5 14.5 6.05228 14.5 5.5C14.5 4.94772 14.0523 4.5 13.5 4.5C12.9477 4.5 12.5 4.94772 12.5 5.5C12.5 6.05228 12.9477 6.5 13.5 6.5Z"/>
      <path fill-rule="evenodd" clip-rule="evenodd" d="M9 14C11.2091 14 13 12.2091 13 10C13 7.79086 11.2091 6 9 6C6.79086 6 5 7.79086 5 10C5 12.2091 6.79086 14 9 14ZM9 13C10.6569 13 12 11.6569 12 10C12 8.3431 10.6569 7 9 7C7.3431 7 6 8.3431 6 10C6 11.6569 7.3431 13 9 13Z"/>
      <path fill-rule="evenodd" clip-rule="evenodd" d="M1 6C1 3.79086 2.79086 2 5 2H13C15.2091 2 17 3.79086 17 6V14C17 16.2091 15.2091 18 13 18H5C2.79086 18 1 16.2091 1 14V6ZM5 3H13C14.6569 3 16 4.34315 16 6V14C16 15.6569 14.6569 17 13 17H5C3.34315 17 2 15.6569 2 14V6C2 4.34315 3.34315 3 5 3Z"/>
    </g>
  </symbol>

  <symbol id="icon__fb" viewBox="0 0 12 19">
    <path d="M8.1 19H3V10H1V6H3C3 4 3.1 2.4 4 1.4C4.8 0.5 6 0 7.5 0H11V4C11 4 10.6607 4 10 4C8 4 8 6 8 6H11V10H8L8.1 19ZM4 18H7V9H10V7H7C7 7 6.5 3 10 3V1H7.5C6 1 5.6 1.4 5 2C4.2 2.8 4 4.5 4 6V7H2V9H4V18Z" fill="currentColor"/>
  </symbol>

  <symbol id="icon__html-academy" viewBox="0 0 40 50">
    <path d="M20.203 0H20L0 2.1V38.3L20 50L40 38.3V2.1L20.203 0ZM37.4619 36.8L20 47L2.53807 36.8V22L20 32.2V34L8.0203 27V28.8L20 36V37.9L8 31V32.8L20 39.6L32.0812 32.5V24.9L37.4619 21.7V36.8ZM37.3604 19.8L32.5888 22.6L30.3553 23.9L20 17.7V19.5L28.8325 24.9H28.731L28.5279 25L27.2081 25.7L20 21.2V23L25.6853 26.6L24.264 27.5L20 24.8V26.6L22.8426 28.4L20 30L2.63959 20L20 10L37.3604 19.8ZM37.4619 18L20 8L2.53807 18V4.4L20 2.6L37.4619 4.4V18Z" fill="currentColor" />
  </symbol>

  <symbol id="logo__footer" viewBox="0 0 130 26">
    <g fill="currentColor">
      <path d="M2.6 22.5C1.6 21.2 1 19.3 1 16.9V8.6C1 6.1 1.5 4.2 2.5 2.9C3.6 1.6 5.3 1 7.8 1C10.2 1 11.9 1.6 12.9 2.7C13.9 3.8 14.4 5.5 14.4 7.6V9.6H9.5V7.3C9.5 6.4 9.4 5.7 9.2 5.3C9 4.9 8.6 4.5 7.8 4.5C7.1 4.5 6.6 4.7 6.4 5.2C6.2 5.7 6.1 6.5 6.1 7.4V18.1C6.1 19 6.2 19.7 6.5 20.2C6.7 20.7 7.2 20.9 7.9 20.9C8.6 20.9 9 20.7 9.2 20.2C9.4 19.7 9.5 19 9.5 18.1V15.7H14.4V17.7C14.4 19.8 13.9 21.5 12.9 22.7C11.9 23.9 10.2 24.5 7.8 24.5C5.4 24.4 3.6 23.8 2.6 22.5Z"/>
      <path d="M20.3 1.3H26L30.2 24.1H25.6L24.8 19.3H21.5L20.7 24.1H16L20.3 1.3ZM24.4 16.3L23.2 7.4L22 16.3H24.4Z"/>
      <path d="M33.7 5.1H30.3V1.3H42.2V5H38.8V24.1H33.7V5.1Z"/>
      <path d="M60.1 1.3V3.7H54.4V11.2H59V13.5H54.4V21.9H60.1V24.2H51.2V1.3H60.1Z"/>
      <path d="M62.7 1.3H64.9L71.4 16.4V1.3H74V24.1H72L65.4 8.5V24.1H62.7V1.3Z"/>
      <path d="M77 1.3H85.8V3.7H80.1V11.2H84.7V13.5H80.1V21.9H85.8V24.2H77V1.3Z"/>
      <path d="M93 1.3C95.3 1.3 97 1.8 98.1 2.7C99.2 3.6 99.7 5.2 99.7 7.3C99.7 10.2 98.8 12 96.9 12.6L100.1 24H97L94 13.3H91.5V24H88.3V1.3H93ZM92.8 11.1C94.2 11.1 95.1 10.8 95.7 10.3C96.3 9.8 96.6 8.8 96.6 7.3C96.6 6.4 96.5 5.6 96.3 5.1C96.1 4.6 95.7 4.2 95.2 3.9C94.7 3.6 93.9 3.5 93 3.5H91.6V11H92.8V11.1Z" fill="#111111"/>
      <path d="M103.7 22.4C102.8 21.1 102.3 19.2 102.3 16.6V9C102.3 7.2 102.5 5.8 102.8 4.7C103.2 3.6 103.8 2.7 104.7 2.1C105.6 1.5 106.8 1.2 108.4 1.2C110.5 1.2 112 1.7 112.9 2.8C113.8 3.9 114.3 5.5 114.3 7.8V8.6H111.3V7.9C111.3 6.8 111.2 6 111.1 5.4C111 4.8 110.7 4.4 110.3 4.1C109.9 3.8 109.3 3.6 108.4 3.6C107.5 3.6 106.9 3.8 106.4 4.2C105.9 4.6 105.7 5.1 105.6 5.8C105.5 6.5 105.4 7.4 105.4 8.5V17C105.4 18.7 105.6 20 106 20.8C106.4 21.6 107.2 21.9 108.4 21.9C109.6 21.9 110.4 21.5 110.8 20.7C111.2 19.9 111.5 18.6 111.5 16.7V15.1H108.6V12.8H114.4V24.1H112.4L112.1 21.5C111.4 23.4 110 24.4 108 24.4C106.1 24.4 104.6 23.7 103.7 22.4Z" fill="#111111"/>
      <path d="M120.8 16.1L115.9 1.4H118.9L122.4 12.4L125.8 1.4H128.8L123.9 16.1V24.1H120.9V16.1H120.8Z"/>
    </g>
  </symbol>

  <symbol id="icon-phone" viewBox="0 0 20 20">
    <path fill-rule="evenodd" clip-rule="evenodd" d="M8.1054 13.2054V19.4054C8.1054 19.7054 7.8054 20.0054 7.5054 19.9054H3.1054H2.9054C1.2054 19.9054 -0.0945964 18.5054 0.00540359 16.8054V3.1054V2.9054C0.105404 1.2054 1.5054 -0.0945964 3.1054 0.00540359H7.5054C7.8054 0.00540359 8.1054 0.305404 8.2054 0.605404V6.9054C8.2054 7.2054 7.9054 7.5054 7.6054 7.5054H3.2054C3.2054 6.9054 3.7054 6.3054 4.4054 6.3054H6.8054V1.3054H3.1054H2.9054C2.0054 1.3054 1.2054 2.1054 1.2054 3.1054V16.9054V17.1054C1.3054 18.1054 2.1054 18.9054 3.1054 18.8054H6.8054V13.8054H4.3054C3.7054 13.8054 3.1054 13.3054 3.1054 12.6054H4.4054H7.5054C7.8054 12.6054 8.1054 12.9054 8.1054 13.2054ZM9.40527 9.40543H17.9053L15.8053 7.40543L16.7053 6.50543L19.8053 9.60543C20.0053 9.90543 20.0053 10.3054 19.8053 10.5054L16.7053 13.6054L15.8053 12.7054L17.9053 10.6054H9.40527V9.40543Z" fill="currentColor" />
  </symbol>

  <symbol id="icon-email" viewBox="0 0 20 20">
    <path d="M16.5 14.5H1.5V9H0V16H18V9H16.5176L16.5 14.5ZM0 3V5.5L9 12.5L18 5.5V3H0ZM16.5176 4.5L9 10.5L1.5 4.5H16.5176Z" fill="currentColor" />
  </symbol>

  <symbol id="icon-plus" viewBox="0 0 30 30">
    <line x1="15" y1="4.37114e-08" x2="15" y2="30" stroke="#D3D3D3" stroke-width="1" />
    <line x1="30" y1="15" x2="-8.74228e-08" y2="15" stroke="#D3D3D3" stroke-width="1" />
  </symbol>

</svg>
